<svg xmlns="http://www.w3.org/2000/svg" xmlns:xlink="http://www.w3.org/1999/xlink" width="500" zoomAndPan="magnify" viewBox="0 0 375 374.999991" height="500" preserveAspectRatio="xMidYMid meet" version="1.0"><defs><clipPath id="3d2953abb5"><path d="M 22.5 28 L 352.5 28 L 352.5 375 L 22.5 375 Z M 22.5 28 " clip-rule="nonzero"/></clipPath></defs><path fill="#000000" d="M 299.363281 121.6875 L 275.25 128.867188 C 260.699219 133.199219 251.429688 136.289062 251.847656 136.671875 C 252.230469 137.015625 261.53125 141.683594 272.519531 147.054688 L 292.257812 162.988281 L 347.273438 141.3125 C 347.273438 141.082031 341.996094 138.796875 335.59375 136.246094 C 329.191406 133.695312 318.414062 129.390625 311.648438 126.660156 Z M 299.363281 121.6875 " fill-opacity="1" fill-rule="nonzero"/><g clip-path="url(#3d2953abb5)"><path fill="#000000" d="M 207.671875 28.917969 C 207.253906 28.964844 206.835938 29.097656 206.4375 29.226562 L 24.128906 90.179688 C 23.761719 90.820312 23.273438 93.582031 22.953125 94.253906 C 22.816406 94.695312 22.800781 94.957031 22.769531 95.183594 C 22.699219 95.632812 22.648438 95.871094 22.644531 96.046875 L 22.644531 96.664062 C 22.664062 96.910156 22.691406 96.980469 22.707031 97.097656 C 22.734375 97.324219 22.796875 97.535156 22.828125 97.777344 C 22.898438 98.253906 23.007812 98.839844 23.136719 99.628906 L 55.003906 277.738281 C 55.28125 279.234375 56.113281 280.664062 57.289062 281.628906 L 59.265625 283.234375 C 96.472656 312.175781 130.8125 343.121094 168.082031 372.289062 C 168.617188 372.703125 169.015625 373.066406 169.378906 373.335938 C 169.5625 373.472656 169.703125 373.554688 169.9375 373.707031 C 170.050781 373.785156 170.152344 373.917969 170.429688 374.078125 C 170.566406 374.15625 170.804688 374.226562 171.171875 374.386719 C 171.527344 374.542969 171.765625 374.9375 173.828125 374.882812 L 173.828125 374.941406 L 173.949219 374.941406 L 173.949219 374.882812 C 174.105469 374.859375 175.757812 374.664062 176.480469 374.324219 C 177.238281 373.972656 177.785156 373.5 178.210938 373.089844 L 350.882812 278.230469 C 352.332031 276.355469 352.035156 276.011719 352.121094 275.636719 C 352.207031 275.261719 352.21875 275.082031 352.242188 274.894531 C 352.289062 274.527344 352.285156 274.257812 352.304688 273.96875 C 352.34375 273.394531 352.34375 272.78125 352.363281 271.992188 L 347.921875 146.503906 L 347.671875 141.191406 L 344.125 141.875 L 292.371094 162.117188 C 291.65625 159.296875 291.5625 158.882812 292.269531 157.542969 L 315.046875 128.722656 C 314.890625 128.320312 335.125 118.644531 334.992188 118.230469 C 333.132812 112.457031 340.722656 112.882812 340.628906 106.605469 L 336.0625 72.269531 L 210.203125 29.164062 C 209.375 28.914062 208.53125 28.882812 207.671875 28.976562 Z M 207.671875 28.917969 " fill-opacity="1" fill-rule="nonzero"/></g><path fill="#000000" d="M 208.347656 0.0117188 C 208.136719 0.0234375 207.933594 0.0625 207.730469 0.132812 L 169.6875 14.152344 C 169.296875 14.292969 168.96875 14.523438 168.703125 14.84375 C 168.4375 15.164062 168.269531 15.53125 168.207031 15.945312 C 168.140625 16.355469 168.1875 16.753906 168.34375 17.144531 C 168.496094 17.53125 168.738281 17.851562 169.070312 18.105469 L 194.824219 38.605469 C 195.121094 38.839844 195.457031 38.988281 195.828125 39.054688 C 196.199219 39.117188 196.566406 39.09375 196.925781 38.976562 L 234.289062 26.8125 C 234.683594 26.695312 235.023438 26.484375 235.308594 26.179688 C 235.589844 25.878906 235.777344 25.523438 235.867188 25.121094 C 235.957031 24.714844 235.9375 24.316406 235.808594 23.921875 C 235.679688 23.527344 235.460938 23.195312 235.152344 22.921875 L 210.078125 0.5625 C 209.582031 0.128906 209.003906 -0.0585938 208.347656 0.0078125 Z M 208.347656 0.0117188 " fill-opacity="1" fill-rule="nonzero"/><path fill="#000000" d="M 111.949219 65.351562 L 115.4375 103.007812 L 78.300781 77.984375 L 80.867188 43.042969 L 111.949219 65.347656 Z M 111.949219 65.351562 " fill-opacity="1" fill-rule="nonzero"/><path fill="#000000" d="M 175.003906 42.488281 L 111.949219 65.347656 L 115.4375 103.007812 L 178.550781 80.15625 Z M 175.003906 42.488281 " fill-opacity="1" fill-rule="nonzero"/><path fill="#000000" d="M 179.445312 93.484375 L 182.84375 129.910156 L 138.363281 118.738281 L 134.996094 82.285156 Z M 179.445312 93.484375 " fill-opacity="1" fill-rule="nonzero"/><path fill="#000000" d="M 179.445312 93.484375 L 182.84375 129.910156 L 228.433594 99.664062 L 225.039062 63.203125 Z M 179.445312 93.484375 " fill-opacity="1" fill-rule="nonzero"/><path fill="#000000" d="M 168.398438 16.574219 L 196.3125 36.804688 L 199.472656 69.675781 L 162.65625 45.941406 Z M 168.398438 16.574219 " fill-opacity="1" fill-rule="nonzero"/><path fill="#000000" d="M 196.316406 36.796875 L 199.476562 69.667969 L 224.960938 55.523438 L 235.652344 24.511719 Z M 196.316406 36.796875 " fill-opacity="1" fill-rule="nonzero"/><path fill="#000000" d="M 242.1875 28.488281 C 242.019531 28.511719 241.855469 28.554688 241.695312 28.613281 L 202.292969 43.0625 C 201.859375 43.222656 201.503906 43.480469 201.21875 43.84375 C 200.933594 44.203125 200.761719 44.613281 200.710938 45.074219 C 200.660156 45.53125 200.730469 45.96875 200.925781 46.382812 C 201.121094 46.800781 201.414062 47.136719 201.800781 47.386719 L 235.148438 69.558594 C 235.488281 69.777344 235.863281 69.902344 236.269531 69.9375 C 236.671875 69.96875 237.0625 69.90625 237.433594 69.742188 L 281.527344 51.832031 C 281.957031 51.644531 282.300781 51.351562 282.558594 50.964844 C 282.820312 50.574219 282.957031 50.148438 282.96875 49.679688 C 282.984375 49.210938 282.871094 48.777344 282.632812 48.375 C 282.394531 47.972656 282.066406 47.664062 281.652344 47.449219 L 243.609375 28.734375 C 243.160156 28.507812 242.6875 28.425781 242.1875 28.488281 Z M 242.1875 28.488281 " fill-opacity="1" fill-rule="nonzero"/><path fill="#000000" d="M 148.691406 28.851562 C 148.546875 28.871094 148.402344 28.878906 148.257812 28.910156 L 83.167969 40.089844 C 80.90625 40.492188 80.019531 43.960938 81.808594 45.402344 L 110.09375 67.695312 C 110.890625 68.339844 112.03125 68.535156 112.996094 68.191406 L 175.621094 52.007812 C 176.75 51.589844 177.566406 50.429688 177.578125 49.21875 C 177.597656 48.011719 176.804688 46.835938 175.679688 46.390625 L 149.867188 29.097656 C 149.496094 28.9375 149.09375 28.855469 148.691406 28.851562 Z M 148.691406 28.851562 " fill-opacity="1" fill-rule="nonzero"/><path fill="#000000" d="M 280.601562 49.578125 L 283.746094 83.625 L 239.652344 101.515625 L 236.511719 67.511719 Z M 280.601562 49.578125 " fill-opacity="1" fill-rule="nonzero"/><path fill="#000000" d="M 288.570312 40.160156 C 288.195312 40.171875 287.84375 40.277344 287.519531 40.46875 L 247.070312 65.109375 C 246.671875 65.339844 246.375 65.664062 246.179688 66.078125 C 245.988281 66.496094 245.925781 66.929688 246.003906 67.382812 C 246.078125 67.835938 246.273438 68.226562 246.59375 68.554688 C 246.914062 68.886719 247.296875 69.09375 247.75 69.183594 L 289.867188 78.574219 C 290.433594 78.703125 290.96875 78.621094 291.472656 78.324219 L 338.53125 51.523438 C 338.929688 51.28125 339.222656 50.949219 339.410156 50.523438 C 339.601562 50.101562 339.648438 49.660156 339.558594 49.203125 C 339.46875 48.746094 339.257812 48.359375 338.921875 48.035156 C 338.585938 47.714844 338.1875 47.519531 337.730469 47.445312 L 289.003906 40.222656 C 288.859375 40.1875 288.714844 40.167969 288.570312 40.160156 Z M 288.570312 40.160156 " fill-opacity="1" fill-rule="nonzero"/><path fill="#000000" d="M 290.339844 76.375 L 337.535156 48.808594 C 338.261719 48.894531 338.820312 48.097656 339.394531 49.136719 L 340.84375 113.207031 C 340.894531 115.507812 341.070312 117.070312 338.402344 118.261719 L 295.972656 145.457031 Z M 290.339844 76.375 " fill-opacity="1" fill-rule="nonzero"/><path fill="#ffffff" d="M 208.503906 2.328125 L 170.507812 16.3125 L 196.246094 36.800781 L 233.632812 24.675781 Z M 208.503906 2.328125 " fill-opacity="1" fill-rule="nonzero"/><path fill="#ffffff" d="M 29.179688 96.15625 C 29.09375 96.273438 31.441406 109.789062 34.382812 126.207031 C 39.011719 152.023438 39.898438 156.210938 41.011719 157.074219 C 42.53125 158.253906 69.875 172.226562 70.566406 172.179688 C 70.828125 172.15625 68.949219 158.722656 66.414062 142.328125 C 63.875 125.933594 61.625 112.144531 61.40625 111.683594 C 61.03125 110.890625 29.519531 95.707031 29.179688 96.15625 Z M 29.179688 96.15625 " fill-opacity="1" fill-rule="nonzero"/><path fill="#ffffff" d="M 66.582031 113.511719 L 66.730469 115.796875 C 66.8125 117.046875 68.949219 130.917969 71.480469 146.628906 L 76.082031 175.195312 L 93.351562 183.980469 C 102.851562 188.816406 110.65625 192.722656 110.695312 192.667969 C 110.734375 192.613281 109.011719 178.660156 106.855469 161.640625 L 102.9375 130.691406 L 66.578125 113.511719 Z M 66.582031 113.511719 " fill-opacity="1" fill-rule="nonzero"/><path fill="#ffffff" d="M 282.8125 101.785156 C 278.660156 102.820312 219.738281 125.050781 219.011719 125.886719 C 218.792969 126.140625 219.742188 136.671875 221.132812 149.304688 C 222.527344 161.933594 224.015625 176.058594 224.441406 180.6875 C 224.863281 185.320312 225.484375 189.058594 225.800781 189.003906 C 226.121094 188.957031 240.074219 183.246094 256.808594 176.328125 C 273.539062 169.414062 287.347656 163.59375 287.496094 163.394531 C 287.957031 162.777344 283.582031 102.152344 283.046875 101.75 C 283.011719 101.726562 282.941406 101.726562 282.8125 101.78125 Z M 282.8125 101.785156 " fill-opacity="1" fill-rule="nonzero"/><path fill="#ffffff" d="M 107.410156 132.855469 L 111.582031 163.746094 C 114.710938 186.945312 115.988281 194.839844 116.699219 195.460938 C 117.851562 196.46875 153.230469 214.601562 153.960938 214.558594 C 154.246094 214.535156 152.863281 203.242188 150.898438 189.449219 C 148.929688 175.652344 147.097656 161.355469 146.816406 157.671875 L 146.320312 150.976562 L 144.410156 150.550781 C 143.363281 150.316406 135.503906 146.652344 126.945312 142.402344 C 118.390625 138.15625 110.507812 134.269531 109.414062 133.765625 L 107.414062 132.855469 Z M 107.410156 132.855469 " fill-opacity="1" fill-rule="nonzero"/><path fill="#ffffff" d="M 213.359375 128.128906 C 210.183594 128.554688 152.648438 151.0625 152.003906 152.121094 C 151.460938 153.007812 152.332031 160.527344 155.761719 184.53125 C 158.214844 201.726562 160.457031 215.765625 160.734375 215.722656 C 161.019531 215.683594 174.511719 210.179688 190.742188 203.496094 C 206.96875 196.8125 220.457031 191.046875 220.707031 190.6875 C 220.953125 190.332031 219.71875 177.550781 217.976562 162.289062 C 216.234375 147.023438 214.761719 133.054688 214.699219 131.246094 C 214.597656 128.417969 214.410156 127.984375 213.363281 128.128906 Z M 213.359375 128.128906 " fill-opacity="1" fill-rule="nonzero"/><path fill="#ffffff" d="M 41.542969 163.375 C 41.132812 163.925781 50.097656 215.03125 51.121094 217.957031 C 51.734375 219.703125 54.472656 221.738281 66.40625 229.289062 L 80.949219 238.484375 L 79.765625 228.96875 C 79.113281 223.738281 77.019531 210.164062 75.109375 198.796875 L 71.636719 178.121094 L 56.753906 170.519531 C 48.570312 166.339844 41.726562 163.132812 41.542969 163.375 Z M 41.542969 163.375 " fill-opacity="1" fill-rule="nonzero"/><path fill="#ffffff" d="M 77.042969 181.125 C 76.980469 181.269531 79.015625 194.945312 81.597656 211.507812 C 85.207031 234.757812 86.492188 241.78125 87.265625 242.359375 C 87.816406 242.773438 95.40625 247.632812 104.125 253.140625 L 119.984375 263.148438 L 118.300781 248.332031 C 117.378906 240.183594 115.535156 225.625 114.207031 215.992188 L 111.796875 198.492188 L 94.476562 189.671875 C 84.953125 184.820312 77.109375 180.980469 77.046875 181.125 Z M 77.042969 181.125 " fill-opacity="1" fill-rule="nonzero"/><path fill="#ffffff" d="M 343.589844 145.746094 C 342.789062 145.863281 292.914062 166.222656 292.636719 166.558594 C 292.484375 166.738281 296.820312 231.207031 297.132812 233.417969 C 297.234375 234.140625 297.660156 234.503906 298.121094 234.257812 C 298.566406 234.019531 309.015625 229.46875 321.335938 224.152344 C 333.660156 218.835938 344.097656 214.179688 344.539062 213.8125 C 345.078125 213.359375 345.183594 202.898438 344.839844 181.648438 C 344.5625 164.332031 344.332031 149.148438 344.355469 147.902344 C 344.378906 146.414062 344.121094 145.675781 343.589844 145.746094 Z M 343.589844 145.746094 " fill-opacity="1" fill-rule="nonzero"/><path fill="#ffffff" d="M 287.867188 168.464844 L 257.222656 181.085938 C 240.363281 188.03125 226.441406 193.863281 226.300781 194.054688 C 226.015625 194.433594 231.578125 246.980469 232.890625 256.351562 L 233.699219 262.21875 L 262.898438 249.542969 C 278.960938 242.566406 292.261719 236.648438 292.445312 236.402344 C 292.777344 235.960938 288.878906 175.984375 288.195312 170.964844 Z M 287.867188 168.464844 " fill-opacity="1" fill-rule="nonzero"/><path fill="#ffffff" d="M 116.675781 201.128906 C 116.503906 201.152344 118.492188 215.988281 121.101562 234.097656 L 125.84375 267.019531 L 144.730469 278.878906 L 163.613281 290.742188 L 162.785156 281.875 C 162.332031 277 160.300781 261.128906 158.273438 246.613281 L 154.589844 220.21875 L 135.796875 210.652344 C 125.453125 205.390625 116.847656 201.105469 116.679688 201.128906 Z M 116.675781 201.128906 " fill-opacity="1" fill-rule="nonzero"/><path fill="#ffffff" d="M 221.375 196.28125 C 221.058594 196.042969 161.476562 220.285156 161.214844 220.757812 C 161.171875 220.832031 163.136719 236.414062 165.570312 255.367188 C 169.933594 289.359375 169.992188 289.816406 171.261719 289.285156 C 171.96875 288.984375 185.238281 283.226562 200.75 276.5 L 228.949219 264.269531 L 228.34375 256.980469 C 227.261719 244.324219 221.777344 196.585938 221.375 196.28125 Z M 221.375 196.28125 " fill-opacity="1" fill-rule="nonzero"/><path fill="#ffffff" d="M 52.6875 227.023438 C 52.660156 227.023438 52.664062 227.054688 52.667969 227.070312 C 52.648438 227.601562 54.597656 238.972656 57.011719 252.324219 L 61.414062 276.589844 L 63.386719 278.222656 L 77.910156 290.164062 L 90.476562 300.46875 L 88.851562 287.558594 C 87.957031 280.449219 86.066406 267.867188 84.621094 259.609375 L 82 244.597656 L 67.363281 235.351562 C 59.097656 230.136719 53.070312 226.722656 52.679688 227.023438 Z M 52.6875 227.023438 " fill-opacity="1" fill-rule="nonzero"/><path fill="#ffffff" d="M 87.925781 248.34375 L 89.542969 261.191406 C 90.433594 268.265625 92.363281 281.125 93.859375 289.757812 L 96.578125 305.449219 L 112.847656 318.796875 L 129.136719 332.140625 L 128.289062 323.140625 C 127.820312 318.191406 126.046875 304.097656 124.335938 291.804688 L 121.230469 269.441406 L 104.578125 258.894531 Z M 87.925781 248.34375 " fill-opacity="1" fill-rule="nonzero"/><path fill="#ffffff" d="M 344.09375 219.84375 C 341.9375 220.308594 336.023438 222.785156 321.273438 229.195312 C 308.300781 234.835938 297.648438 239.503906 297.601562 239.582031 C 297.554688 239.664062 298.316406 251.207031 299.304688 265.234375 C 300.292969 279.265625 301.164062 292.582031 301.246094 294.835938 C 301.390625 298.660156 301.484375 298.898438 302.628906 298.25 C 303.300781 297.871094 313.15625 292.460938 324.523438 286.246094 C 335.890625 280.03125 345.429688 274.636719 345.726562 274.253906 C 346.285156 273.527344 345.765625 221.839844 345.179688 219.992188 C 345.113281 219.773438 344.8125 219.691406 344.09375 219.84375 Z M 344.09375 219.84375 " fill-opacity="1" fill-rule="nonzero"/><path fill="#ffffff" d="M 292.789062 241.835938 C 292.324219 241.664062 234.554688 266.710938 234.203125 267.242188 C 234.066406 267.4375 235.34375 279.78125 237.03125 294.671875 C 238.714844 309.558594 240.238281 323.992188 240.410156 326.742188 C 240.585938 329.496094 240.902344 331.71875 241.117188 331.691406 C 241.332031 331.660156 254.003906 324.792969 269.277344 316.441406 L 297.03125 301.269531 L 297.085938 299.066406 C 297.160156 294.894531 293.183594 241.984375 292.789062 241.835938 Z M 292.789062 241.835938 " fill-opacity="1" fill-rule="nonzero"/><path fill="#ffffff" d="M 126.511719 272.953125 C 126.171875 272.875 127.945312 287.253906 130.464844 304.898438 L 135.046875 336.996094 L 154.179688 352.71875 C 164.703125 361.367188 173.5 368.433594 173.722656 368.425781 C 173.945312 368.425781 172.613281 356.359375 170.765625 341.621094 C 168.914062 326.886719 166.828125 310.8125 166.121094 305.902344 L 164.820312 296.96875 L 145.96875 285.035156 C 135.597656 278.472656 126.847656 273.03125 126.507812 272.953125 Z M 126.511719 272.953125 " fill-opacity="1" fill-rule="nonzero"/><path fill="#ffffff" d="M 229.507812 269.414062 C 229.246094 269.21875 211.867188 276.648438 171.917969 294.042969 C 170.84375 294.511719 171.09375 296.808594 175.785156 329.679688 C 178.558594 349.085938 181.058594 364.65625 181.367188 364.484375 L 209.464844 349.132812 L 237.003906 334.105469 L 236.4375 329.964844 C 236.113281 327.691406 234.496094 313.199219 232.839844 297.75 C 231.183594 282.300781 229.691406 269.546875 229.511719 269.410156 Z M 229.507812 269.414062 " fill-opacity="1" fill-rule="nonzero"/><path fill="#ffffff" d="M 84.925781 74.328125 L 61.160156 81.792969 C 48.089844 85.902344 37.253906 89.445312 37.085938 89.667969 C 36.917969 89.890625 37.277344 90.285156 37.882812 90.535156 C 38.488281 90.78125 44.71875 93.777344 51.714844 97.175781 C 58.710938 100.574219 64.898438 103.296875 65.464844 103.242188 C 66.03125 103.1875 76.929688 99.425781 89.683594 94.867188 C 102.4375 90.308594 113.074219 86.367188 113.304688 86.097656 C 113.535156 85.828125 107.246094 83.054688 99.328125 79.953125 Z M 84.925781 74.328125 " fill-opacity="1" fill-rule="nonzero"/><path fill="#ffffff" d="M 169.265625 107.378906 L 143.523438 117.757812 C 129.355469 123.464844 117.789062 128.3125 117.835938 128.519531 C 117.960938 129.070312 149.535156 144.207031 150.332031 144.09375 C 150.707031 144.042969 163.636719 139.21875 179.050781 133.378906 C 194.464844 127.539062 207.148438 122.652344 207.246094 122.519531 C 207.34375 122.390625 198.839844 118.9375 188.347656 114.839844 Z M 169.265625 107.378906 " fill-opacity="1" fill-rule="nonzero"/><path fill="#ffffff" d="M 119.554688 88.96875 C 118.800781 89.261719 107.886719 93.171875 95.3125 97.652344 C 82.742188 102.132812 72.15625 105.933594 71.800781 106.101562 C 71.445312 106.273438 80.230469 110.765625 91.304688 116.070312 L 111.4375 125.707031 L 131.214844 117.75 L 156.777344 107.484375 C 159.945312 106.207031 162.257812 104.96875 161.933594 104.722656 C 161.605469 104.480469 152.246094 100.710938 141.132812 96.355469 C 127.339844 90.953125 120.492188 88.605469 119.554688 88.96875 Z M 119.554688 88.96875 " fill-opacity="1" fill-rule="nonzero"/><path fill="#ffffff" d="M 179.917969 57.371094 L 134.980469 82.285156 L 179.417969 93.457031 L 225.035156 63.207031 Z M 179.917969 57.371094 " fill-opacity="1" fill-rule="nonzero"/><path fill="#ffffff" d="M 242.574219 30.894531 L 203.160156 45.355469 L 236.515625 67.511719 L 280.613281 49.597656 Z M 242.574219 30.894531 " fill-opacity="1" fill-rule="nonzero"/><path fill="#ffffff" d="M 148.757812 31.90625 L 83.683594 43.027344 L 111.945312 65.339844 L 174.789062 50.890625 Z M 148.757812 31.90625 " fill-opacity="1" fill-rule="nonzero"/><path fill="#ffffff" d="M 288.703125 42.378906 L 248.21875 67.011719 L 290.347656 76.378906 L 337.410156 49.621094 L 288.699219 42.378906 Z M 288.703125 42.378906 " fill-opacity="1" fill-rule="nonzero"/><path fill="#ffffff" d="M 237.296875 80.089844 L 206.835938 92.292969 C 190.078125 99.007812 176.398438 104.6875 176.429688 104.90625 C 176.457031 105.125 185.003906 108.613281 195.40625 112.683594 L 214.304688 120.082031 L 245.960938 108.140625 C 263.363281 101.566406 277.703125 96.035156 277.828125 95.867188 C 277.953125 95.695312 268.890625 92.078125 257.683594 87.820312 Z M 237.296875 80.089844 " fill-opacity="1" fill-rule="nonzero"/><path fill="#ffffff" d="M 337.675781 55.316406 L 291.292969 82.273438 L 296 142.265625 L 338.5 115.101562 Z M 337.675781 55.316406 " fill-opacity="1" fill-rule="nonzero"/></svg>